<?xml version="1.0" standalone="no"?><!DOCTYPE svg PUBLIC "-//W3C//DTD SVG 1.1//EN" "http://www.w3.org/Graphics/SVG/1.1/DTD/svg11.dtd"><svg t="1639548532783" class="icon" viewBox="0 0 1102 1024" version="1.1" xmlns="http://www.w3.org/2000/svg" p-id="1396" xmlns:xlink="http://www.w3.org/1999/xlink" width="215.234375" height="200"><defs><style type="text/css"></style></defs><path d="M206.77 487.778H68.922C30.917 487.778 0 519.01 0 557.45v396.879C0 992.768 30.917 1024 68.923 1024H206.77c38.006 0 68.923-31.232 68.923-69.671v-396.88c0-38.439-30.917-69.67-68.923-69.67zM620.307 0H482.462c-38.007 0-68.924 31.232-68.924 69.671V954.33c0 38.439 30.917 69.671 68.924 69.671h137.846c38.006 0 68.923-31.232 68.923-69.671V69.67C689.23 31.232 658.314 0 620.308 0z m413.538 209.054H896c-38.006 0-68.923 31.232-68.923 69.67V954.33c0 38.439 30.917 69.671 68.923 69.671h137.846c38.006 0 68.923-31.232 68.923-69.671V278.725c0-38.44-30.917-69.671-68.923-69.671z" fill="#0F77F2" p-id="1397"></path></svg>