<?xml version="1.0" standalone="no"?><!DOCTYPE svg PUBLIC "-//W3C//DTD SVG 1.1//EN" "http://www.w3.org/Graphics/SVG/1.1/DTD/svg11.dtd"><svg t="1639624144383" class="icon" viewBox="0 0 1024 1024" version="1.1" xmlns="http://www.w3.org/2000/svg" p-id="5044" xmlns:xlink="http://www.w3.org/1999/xlink" width="200" height="200"><defs><style type="text/css"></style></defs><path d="M937.984 926.72H492.544c-40.96 0-74.752-32.768-74.752-74.752 0-40.96 32.768-74.752 74.752-74.752h445.44c40.96 0 74.752 32.768 74.752 74.752 0 40.96-33.792 74.752-74.752 74.752z" fill="#D7E4F9" p-id="5045"></path><path d="M438.272 497.664m-429.056 0a429.056 429.056 0 1 0 858.112 0 429.056 429.056 0 1 0-858.112 0Z" fill="#77A4FF" p-id="5046"></path><path d="M306.176 360.448m-74.752 0a74.752 74.752 0 1 0 149.504 0 74.752 74.752 0 1 0-149.504 0Z" fill="#FFFFFF" p-id="5047"></path><path d="M569.344 360.448m-74.752 0a74.752 74.752 0 1 0 149.504 0 74.752 74.752 0 1 0-149.504 0Z" fill="#FFFFFF" p-id="5048"></path><path d="M306.176 620.544m-74.752 0a74.752 74.752 0 1 0 149.504 0 74.752 74.752 0 1 0-149.504 0Z" fill="#FFFFFF" p-id="5049"></path><path d="M569.344 620.544m-74.752 0a74.752 74.752 0 1 0 149.504 0 74.752 74.752 0 1 0-149.504 0Z" fill="#FFFFFF" p-id="5050"></path></svg>