<?xml version="1.0" standalone="no"?><!DOCTYPE svg PUBLIC "-//W3C//DTD SVG 1.1//EN" "http://www.w3.org/Graphics/SVG/1.1/DTD/svg11.dtd"><svg t="1639555344611" class="icon" viewBox="0 0 1024 1024" version="1.1" xmlns="http://www.w3.org/2000/svg" p-id="8444" xmlns:xlink="http://www.w3.org/1999/xlink" width="200" height="200"><defs><style type="text/css"></style></defs><path d="M0 0h315.076923a157.538462 157.538462 0 0 1 157.538462 157.538462v315.076923H157.538462a157.538462 157.538462 0 0 1-157.538462-157.538462V0z m78.769231 78.769231v236.307692a78.769231 78.769231 0 0 0 78.769231 78.769231h236.307692V157.538462a78.769231 78.769231 0 0 0-78.769231-78.769231H78.769231z m630.153846-78.769231h315.076923v315.076923a157.538462 157.538462 0 0 1-157.538462 157.538462h-315.076923V157.538462a157.538462 157.538462 0 0 1 157.538462-157.538462z m236.307692 78.769231h-236.307692a78.769231 78.769231 0 0 0-78.769231 78.769231v236.307692h236.307692a78.769231 78.769231 0 0 0 78.769231-78.769231V78.769231zM157.538462 551.384615h315.076923v315.076923a157.538462 157.538462 0 0 1-157.538462 157.538462H0v-315.076923a157.538462 157.538462 0 0 1 157.538462-157.538462z m236.307692 78.769231H157.538462a78.769231 78.769231 0 0 0-78.769231 78.769231v236.307692h236.307692a78.769231 78.769231 0 0 0 78.769231-78.769231v-236.307692z m157.538461-78.769231h315.076923a157.538462 157.538462 0 0 1 157.538462 157.538462v315.076923h-315.076923a157.538462 157.538462 0 0 1-157.538462-157.538462v-315.076923z m78.769231 78.769231v236.307692a78.769231 78.769231 0 0 0 78.769231 78.769231h236.307692v-236.307692a78.769231 78.769231 0 0 0-78.769231-78.769231h-236.307692z" fill="#d81e06" p-id="8445"></path></svg>