<?xml version="1.0" standalone="no"?><!DOCTYPE svg PUBLIC "-//W3C//DTD SVG 1.1//EN" "http://www.w3.org/Graphics/SVG/1.1/DTD/svg11.dtd"><svg t="1639555318487" class="icon" viewBox="0 0 1024 1024" version="1.1" xmlns="http://www.w3.org/2000/svg" p-id="6543" xmlns:xlink="http://www.w3.org/1999/xlink" width="200" height="200"><defs><style type="text/css"></style></defs><path d="M512 942.08c-237.056 0-430.08-193.024-430.08-430.08s193.024-430.08 430.08-430.08 430.08 193.024 430.08 430.08-193.024 430.08-430.08 430.08z m0-819.2c-214.528 0-389.12 174.592-389.12 389.12s174.592 389.12 389.12 389.12 389.12-174.592 389.12-389.12-174.592-389.12-389.12-389.12z" p-id="6544" fill="#d81e06"></path><path d="M380.416 528.896h122.368c1.024-7.168 1.536-16.896 2.048-28.16h16.384c0 8.704-0.512 18.432-2.048 28.16h123.904v16.384h-120.32c18.944 35.84 61.44 60.416 126.976 73.216l-7.168 15.872c-69.632-14.848-112.64-41.984-130.048-80.384-17.408 37.888-61.44 65.536-132.608 81.92l-7.168-15.872c69.632-14.848 111.104-39.424 125.44-74.752h-117.76v-16.384z m84.48-172.032H481.28v140.288h-16.384v-48.64c-22.528 12.8-49.152 24.576-80.896 35.328l-6.656-15.36c33.792-10.24 62.976-22.528 88.064-36.864V356.864z m-71.68 14.336c18.944 9.728 36.352 21.504 51.712 34.816L436.224 419.84c-16.384-14.848-33.792-26.624-52.224-35.328l9.216-13.312z m178.176-13.824c-4.096 9.216-8.192 17.408-12.8 24.576h77.824v14.336c-16.896 46.592-59.392 79.36-128 98.816l-8.192-14.336c24.576-6.656 46.08-15.36 65.024-26.112-11.264-11.264-22.016-20.48-31.232-27.136l11.776-8.704c10.752 8.192 20.992 17.408 31.232 28.16 19.456-13.824 33.28-30.208 41.984-49.664h-72.704c-11.264 12.8-25.6 24.064-41.984 34.304l-10.24-12.8c29.184-17.408 49.152-38.4 59.904-62.976l17.408 1.536z" p-id="6545" fill="#d81e06"></path></svg>