<?xml version="1.0" standalone="no"?><!DOCTYPE svg PUBLIC "-//W3C//DTD SVG 1.1//EN" "http://www.w3.org/Graphics/SVG/1.1/DTD/svg11.dtd"><svg t="1639556536562" class="icon" viewBox="0 0 1024 1024" version="1.1" xmlns="http://www.w3.org/2000/svg" p-id="12043" xmlns:xlink="http://www.w3.org/1999/xlink" width="200" height="200"><defs><style type="text/css"></style></defs><path d="M553.61015922 1052.60156662h309.78763093a88.21353699 88.21353699 0 0 0 89.25379129-87.1732827V621.93642344H553.61015922zM95.89841237 963.55582597a89.46184078 89.46184078 0 0 0 89.25379129 89.04574065h282.32492601V621.93642344H95.89841237zM967.83928889 245.36448645h-204.51392967a124.83047651 124.83047651 0 0 0 49.93219015-84.88472349 132.52835555 132.52835555 0 0 0-26.2144-97.99192349 136.48132096 136.48132096 0 0 0-187.24571478-26.00634936c-54.50930745 36.82499015-83.2203173 173.93046301-86.96523093 199.93681237-6.65762589-26.00634937-32.66397411-160.82326301-87.1732827-202.2253716a134.40081237 134.40081237 0 0 0-187.24571477 26.2144 122.74996793 122.74996793 0 0 0-26.00634937 97.78387286 122.12581603 122.12581603 0 0 0 47.8516827 89.25379129H62.81833699A44.10676793 44.10676793 0 0 0 12.67809507 285.10218885V517.91102597a48.47583459 48.47583459 0 0 0 49.5160889 47.8516827h898.7794284A48.68388523 48.68388523 0 0 0 1011.32190493 517.70297534v-228.85587286a43.48261603 43.48261603 0 0 0-43.48261604-43.48261603zM303.94920619 193.35178885a48.05973333 48.05973333 0 0 1-28.29490745-43.27456541 62.41523826 62.41523826 0 0 1 10.81864078-54.5093086 65.536 65.536 0 0 1 56.38176541-28.29490743 68.44871111 68.44871111 0 0 1 45.77117411 15.18770743c19.34872349 13.1072 40.15380366 71.77752349 54.92540985 130.65589875-54.50930745 0-121.91776541-2.08050745-139.6020827-19.76482474z m441.89988636-45.77117526a78.22709874 78.22709874 0 0 1-28.29490858 47.85168269c-13.1072 15.18770745-76.14659015 19.55677411-134.81691364 19.55677412 12.48304811-56.58981603 33.28812715-115.26013952 52.0126976-130.44784696a68.86481237 68.86481237 0 0 1 96.95167033 11.85889507 62.41523826 62.41523826 0 0 1 14.14745429 51.18049508z" fill="#1afa29" p-id="12044"></path></svg>