<?xml version="1.0" standalone="no"?><!DOCTYPE svg PUBLIC "-//W3C//DTD SVG 1.1//EN" "http://www.w3.org/Graphics/SVG/1.1/DTD/svg11.dtd"><svg t="1639623794117" class="icon" viewBox="0 0 1024 1024" version="1.1" xmlns="http://www.w3.org/2000/svg" p-id="4888" xmlns:xlink="http://www.w3.org/1999/xlink" width="200" height="200"><defs><style type="text/css"></style></defs><path d="M514.048 510.976m-499.712 0a499.712 499.712 0 1 0 999.424 0 499.712 499.712 0 1 0-999.424 0Z" fill="#E249BA" p-id="4889"></path><path d="M580.608 755.712h-1.024c-28.672-1.024-40.96-39.936-46.08-62.464v-3.072c-14.336-172.032-27.648-270.336-46.08-317.44-12.288-32.768-20.48-32.768-44.032-31.744h-7.168c-11.264 15.36-17.408 91.136-21.504 137.216-7.168 91.136-13.312 144.384-36.864 160.768-7.168 5.12-16.384 7.168-25.6 5.12-53.248-13.312-50.176-94.208-44.032-138.24H128c-11.264 0-20.48-9.216-20.48-20.48s9.216-20.48 20.48-20.48h202.752c6.144 0 11.264 3.072 15.36 7.168 4.096 5.12 5.12 10.24 4.096 16.384-8.192 40.96-9.216 99.328 6.144 113.664 9.216-19.456 14.336-83.968 18.432-128 8.192-101.376 14.336-174.08 57.344-174.08h9.216c73.728-2.048 102.4 28.672 131.072 384 2.048 9.216 5.12 18.432 8.192 24.576 4.096-6.144 9.216-18.432 15.36-39.936 13.312-43.008 9.216-106.496 6.144-162.816-4.096-69.632-6.144-119.808 15.36-143.36 7.168-8.192 17.408-12.288 28.672-12.288 75.776 0 81.92 93.184 84.992 152.576 8.192-21.504 18.432-43.008 37.888-51.2 7.168-3.072 19.456-5.12 33.792 1.024h109.568c11.264 0 20.48 9.216 20.48 20.48s-9.216 20.48-20.48 20.48H798.72c-3.072 0-6.144-1.024-9.216-2.048-3.072-1.024-5.12-2.048-5.12-1.024-7.168 3.072-15.36 28.672-20.48 40.96-8.192 25.6-17.408 51.2-41.984 51.2-27.648 0-29.696-31.744-30.72-71.68-3.072-62.464-8.192-117.76-45.056-117.76-10.24 9.216-7.168 71.68-4.096 113.664 3.072 59.392 7.168 126.976-8.192 176.128-10.24 34.816-25.6 72.704-53.248 72.704z" fill="#FFFFFF" p-id="4890"></path></svg>