<?xml version="1.0" standalone="no"?><!DOCTYPE svg PUBLIC "-//W3C//DTD SVG 1.1//EN" "http://www.w3.org/Graphics/SVG/1.1/DTD/svg11.dtd"><svg t="1639726600581" class="icon" viewBox="0 0 1024 1024" version="1.1" xmlns="http://www.w3.org/2000/svg" p-id="851" xmlns:xlink="http://www.w3.org/1999/xlink" width="200" height="200"><defs><style type="text/css"></style></defs><path d="M959.5 512c0-247.424-200.576-448-448-448s-448 200.576-448 448 200.576 448 448 448c0.167 0 0.333-0.003 0.5-0.003V960h448V512h-0.5zM517 609H307c-24.853 0-45-20.147-45-45s20.147-45 45-45h210c24.853 0 45 20.147 45 45s-20.147 45-45 45z m200-160H307c-24.853 0-45-20.147-45-45s20.147-45 45-45h410c24.853 0 45 20.147 45 45s-20.147 45-45 45z" fill="#29ABE2" p-id="852"></path></svg>