<svg viewBox="0 0 226.77 328.82" xmlns="http://www.w3.org/2000/svg" id="图层_1"><defs><style>.cls-1,.cls-2,.cls-3{fill:none;}.cls-1,.cls-2,.cls-4,.cls-5,.cls-6{stroke:#542114;stroke-miterlimit:10;}.cls-1{stroke-width:0.72px;}.cls-2{stroke-width:0.71px;}.cls-4{fill:#ab2624;stroke-width:1.47px;}.cls-5{fill:#c92f1d;}.cls-5,.cls-6{stroke-width:1.64px;}.cls-6{fill:#e49429;}</style></defs><title>红包</title><circle r="101.84" cy="164.41" cx="113.39" class="cls-1"></circle><circle r="97.33" cy="164.41" cx="113.39" class="cls-2"></circle><circle r="97.33" cy="164.41" cx="113.39" class="cls-3"></circle><circle r="97.33" cy="164.41" cx="113.39" class="cls-3"></circle><circle r="97.33" cy="164.41" cx="113.39" class="cls-3"></circle><rect height="88.97" width="59.31" y="100.3" x="89.76" class="cls-4"></rect><polygon points="90.5 100.69 147.24 100.3 117.57 150.56 90.5 100.69" class="cls-5"></polygon><ellipse ry="11.2" rx="12.15" cy="140.7" cx="118.12" class="cls-6"></ellipse><rect transform="translate(-94.32 75.61) rotate(-35.59)" height="88.97" width="59.31" y="140.25" x="40.97" class="cls-4"></rect><polygon points="21.44 165.71 67.36 132.37 72.48 190.51 21.44 165.71" class="cls-5"></polygon><ellipse transform="translate(-93.47 73.12) rotate(-35.59)" ry="11.2" rx="12.15" cy="182.17" cx="67.18" class="cls-6"></ellipse><rect transform="translate(179.52 -52.85) rotate(45.49)" height="88.97" width="59.31" y="143.19" x="123.13" class="cls-4"></rect><polygon points="163.96 136.13 204.01 176.33 147.37 190.4 163.96 136.13" class="cls-5"></polygon><ellipse transform="translate(-84.5 161.25) rotate(-44.51)" ry="12.15" rx="11.2" cy="183.88" cx="154.79" class="cls-6"></ellipse></svg>